HIERARCHY
ROOT RootJoint
{
    OFFSET   0.000000   0.000000   0.000000
    CHANNELS 6 Xposition Yposition Zposition Xrotation Yrotation Zrotation
    JOINT pelvis_lowerback
    {
        OFFSET   0.000000   0.093605   0.000000
        CHANNELS 3 Xrotation Yrotation Zrotation
        JOINT lowerback_torso
        {
            OFFSET   0.000000   0.100000   0.000000
            CHANNELS 3 Xrotation Yrotation Zrotation
            JOINT torso_head
            {
                OFFSET   0.000000   0.282350   0.000000
                CHANNELS 3 Xrotation Yrotation Zrotation
                End Site
                {
                    OFFSET   0.000000   0.192650   0.000000
                }
            }
            JOINT rTorso_Clavicle
            {
                OFFSET  -0.001000   0.157500   0.000000
                CHANNELS 3 Xrotation Yrotation Zrotation
                JOINT rShoulder
                {
                    OFFSET  -0.117647   0.000000   0.000000
                    CHANNELS 3 Xrotation Yrotation Zrotation
                    JOINT rElbow
                    {
                        OFFSET  -0.245000   0.000000   0.000000
                        CHANNELS 3 Xrotation Yrotation Zrotation
                        JOINT rWrist
                        {
                            OFFSET  -0.240000   0.000000   0.000000
                            CHANNELS 3 Xrotation Yrotation Zrotation
                            End Site
                            {
                                OFFSET  -0.116353  -0.002500   0.000000
                            }
                        }
                    }
                }
            }
            JOINT lTorso_Clavicle
            {
                OFFSET   0.001000   0.157500   0.000000
                CHANNELS 3 Xrotation Yrotation Zrotation
                JOINT lShoulder
                {
                    OFFSET   0.117647   0.000000   0.000000
                    CHANNELS 3 Xrotation Yrotation Zrotation
                    JOINT lElbow
                    {
                        OFFSET   0.245000   0.000000   0.000000
                        CHANNELS 3 Xrotation Yrotation Zrotation
                        JOINT lWrist
                        {
                            OFFSET   0.240000   0.000000   0.000000
                            CHANNELS 3 Xrotation Yrotation Zrotation
                            End Site
                            {
                                OFFSET   0.116353  -0.002500   0.000000
                            }
                        }
                    }
                }
            }
        }
    }
    JOINT rHip
    {
        OFFSET  -0.100000  -0.051395   0.000000
        CHANNELS 3 Xrotation Yrotation Zrotation
        JOINT rKnee
        {
            OFFSET   0.000000  -0.410000   0.000000
            CHANNELS 3 Xrotation Yrotation Zrotation
            JOINT rAnkle
            {
                OFFSET   0.000000  -0.390000   0.000000
                CHANNELS 3 Xrotation Yrotation Zrotation
                JOINT rToeJoint
                {
                    OFFSET   0.000000  -0.050000   0.130000
                    CHANNELS 3 Xrotation Yrotation Zrotation
                    End Site
                    {
                        OFFSET  -0.010000   0.002000   0.060000
                    }
                }
            }
        }
    }
    JOINT lHip
    {
        OFFSET   0.100000  -0.051395   0.000000
        CHANNELS 3 Xrotation Yrotation Zrotation
        JOINT lKnee
        {
            OFFSET   0.000000  -0.410000   0.000000
            CHANNELS 3 Xrotation Yrotation Zrotation
            JOINT lAnkle
            {
                OFFSET   0.000000  -0.390000   0.000000
                CHANNELS 3 Xrotation Yrotation Zrotation
                JOINT lToeJoint
                {
                    OFFSET   0.000000  -0.050000   0.130000
                    CHANNELS 3 Xrotation Yrotation Zrotation
                    End Site
                    {
                        OFFSET   0.010000   0.002000   0.060000
                    }
                }
            }
        }
    }
}
MOTION
Frames: 10
Frame Time:   0.008333
 -2.303460   1.051432   4.045432  -3.324579  -4.956083  -0.484251  -1.208704  -1.465810  -0.151197  -3.158893  -5.622609   1.367690   2.275053  -1.415245  -3.227472  -8.113719  -3.179840 -24.481446 -38.540280  -6.255754   5.019860  -0.016685   2.471265   0.010515  -5.530208  -2.637880 -14.204000  -6.190886   0.770504  24.203301 -32.853659  -2.799477  -9.272822  -0.018885  -3.287920  -0.013607  -6.541531  -2.416799  15.884128  -2.038412  -7.219604  -8.101835  31.450007  -0.000018   0.000555   8.720703  -6.139689   8.032122  -0.108538  -0.000693   0.001941  -5.907614   3.108726   6.980889  25.101646  -0.000223   0.002236  21.113195   3.801695  -6.284241 -10.307035   0.014867   0.001533
 -2.301768   1.050630   4.045082  -3.417294  -4.810070  -0.425871  -1.262662  -1.542166  -0.275104  -3.340376  -5.745772   1.356185   2.350456  -1.349307  -3.225137  -8.338804  -2.657704 -25.326053 -39.075471  -5.229434   3.902434  -0.021168   3.033677   0.014157  -5.342331  -2.770237 -14.395544  -6.530687  -0.056018  24.886672 -33.631283  -3.808819  -8.174319  -0.020690  -3.697753  -0.016118  -6.416075  -2.355823  15.991159  -1.716814  -6.944231  -7.706842  31.530118  -0.000112   0.000870   8.628222  -5.953002   8.024998  -0.056332  -0.000564   0.001908  -5.820643   2.941061   6.851988  26.226791   0.000170   0.001334  19.863493   3.676565  -6.173542  -9.718649   0.011638   0.000028
 -2.300022   1.049116   4.044708  -3.516815  -4.692094  -0.374849  -1.314064  -1.597584  -0.384301  -3.502155  -5.852461   1.350114   2.411430  -1.284658  -3.221939  -8.519711  -2.099825 -26.214956 -39.564535  -4.165388   2.839532  -0.024705   3.600495   0.016834  -5.133472  -2.740246 -14.610197  -6.826127  -0.902095  25.616659 -34.355798  -4.853516  -7.125370  -0.022318  -4.117369  -0.017971  -6.272641  -2.418702  16.128870  -1.392236  -6.674051  -7.296504  31.618334  -0.000215   0.001146   8.543048  -5.776767   8.018554  -0.002435  -0.000474   0.001877  -5.735522   2.776021   6.700253  27.344942   0.000645   0.000254  18.704735   3.555988  -6.072433  -9.157791   0.009119  -0.001209
 -2.298223   1.046950   4.044287  -3.609799  -4.601320  -0.324090  -1.359798  -1.640907  -0.482540  -3.644443  -5.944846   1.347768   2.460790  -1.223435  -3.218889  -8.661813  -1.533564 -27.112902 -40.005300  -3.103177   1.838712  -0.027145   4.153741   0.018458  -4.901071  -2.577757 -14.834114  -7.082736  -1.731878  26.365266 -35.021788  -5.892630  -6.129375  -0.023464  -4.529945  -0.019032  -6.103423  -2.595147  16.295167  -1.082488  -6.424114  -6.885358  31.704621  -0.000313   0.001327   8.464118  -5.611882   8.013067   0.049687  -0.000416   0.001819  -5.652913   2.625294   6.525370  28.399554   0.001124  -0.000801  17.624870   3.441033  -5.980498  -8.638381   0.007189  -0.002163
 -2.296377   1.044167   4.043807  -3.691369  -4.534102  -0.272681  -1.396355  -1.675190  -0.570127  -3.768700  -6.024983   1.349204   2.503227  -1.166038  -3.216178  -8.773977  -0.978537 -27.996949 -40.400512  -2.066725   0.899106  -0.028553   4.685350   0.019167  -4.655396  -2.334191 -15.066588  -7.307854  -2.527668  27.111061 -35.631167  -6.904570  -5.187220  -0.024051  -4.927850  -0.019385  -5.918396  -2.841529  16.487980  -0.791844  -6.193544  -6.477819  31.785762  -0.000397   0.001419   8.390726  -5.457734   8.008441   0.098942  -0.000379   0.001734  -5.578146   2.487865   6.332811  29.384290   0.001544  -0.001758  16.617539   3.331702  -5.896945  -8.160795   0.005706  -0.002870
 -2.294492   1.040788   4.043269  -3.759949  -4.487736  -0.220319  -1.423215  -1.701911  -0.647697  -3.876904  -6.094484   1.354372   2.541979  -1.112416  -3.213737  -8.863401  -0.446165 -28.852678 -40.754031  -1.070430   0.018527  -0.029061   5.190815   0.019149  -4.404608  -2.047558 -15.308043  -7.507291  -3.280575  27.839655 -36.187449  -7.876713  -4.298800  -0.024096  -5.306854  -0.019169  -5.725729  -3.124576  16.703777  -0.520325  -5.980532  -6.077428  31.861164  -0.000463   0.001443   8.322356  -5.313648   8.004555   0.144898  -0.000355   0.001630  -5.513514   2.362366   6.127892  30.301190   0.001869  -0.002581  15.677600   3.227947  -5.821007  -7.722640   0.004558  -0.003365
 -2.292571   1.036823   4.042678  -3.815220  -4.460262  -0.166872  -1.441687  -1.722103  -0.716091  -3.971665  -6.154633   1.362961   2.578858  -1.062401  -3.211463  -8.935574   0.057727 -29.671071 -41.070019  -0.122383  -0.805436  -0.028829   5.667979   0.018597  -4.154304  -1.742969 -15.557308  -7.685562  -3.986883  28.541509 -36.694753  -8.801994  -3.463322  -0.023668  -5.664839  -0.018532  -5.531024  -3.422228  16.937887  -0.266501  -5.783462  -5.687203  31.931194  -0.000513   0.001420   8.258608  -5.178990   8.001298   0.187465  -0.000338   0.001514  -5.459439   2.247616   5.915373  31.154095   0.002085  -0.003260  14.800437   3.129680  -5.751973  -7.321069   0.003658  -0.003686
 -2.290658   1.032158   4.042036  -3.827447  -4.456659  -0.124253  -1.460814  -1.737087  -0.757105  -4.164300  -6.131989   1.340987   2.590936  -1.091821  -3.166459  -9.205032   0.620798 -30.383291 -41.373996   0.990106  -1.632611  -0.033523   6.562126   0.023274  -3.967102  -1.855529 -15.878290  -8.039221  -4.738029  29.137261 -37.412425  -9.921185  -2.715013  -0.029445  -6.484626  -0.025081  -5.367289  -3.306596  17.187551  -0.044978  -5.470311  -5.255070  32.024748  -0.000579   0.001565   7.462664  -5.045301   7.702264   0.262874  -0.000188   0.001702  -5.462367   1.866700   5.671721  32.079229   0.001400  -0.006085  13.636572   2.965525  -5.604276  -7.032561   0.002446  -0.004546
 -2.288746   1.026833   4.041370  -3.835894  -4.490972  -0.082418  -1.485614  -1.731120  -0.798301  -4.350891  -6.090770   1.319917   2.586685  -1.119257  -3.123638  -9.416348   1.213991 -31.108974 -41.643092   2.115032  -2.401276  -0.036715   7.437830   0.026496  -3.750377  -1.784803 -16.184983  -8.344687  -5.496536  29.759090 -38.077844 -11.052062  -2.011488  -0.033806  -7.291175  -0.029631  -5.170274  -3.380902  17.437392   0.169412  -5.167975  -4.829164  32.108721  -0.000629   0.001605   6.711709  -4.916442   7.424186   0.278458  -0.000139   0.001455  -5.467301   1.491740   5.424969  32.955379   0.000693  -0.008384  12.547957   2.808073  -5.468969  -6.790268   0.001535  -0.005011
 -2.286829   1.020879   4.040654  -3.840675  -4.551179  -0.039535  -1.505768  -1.713164  -0.837959  -4.518803  -6.039453   1.301115   2.573988  -1.144226  -3.084713  -9.581435   1.809189 -31.833061 -41.878499   3.218271  -3.118246  -0.038481   8.275304   0.028191  -3.511808  -1.602002 -16.473837  -8.610854  -6.235714  30.390599 -38.689583 -12.157753  -1.347624  -0.036618  -8.061683  -0.032204  -4.949232  -3.560808  17.694486   0.374313  -4.887914  -4.415844  32.187033  -0.000670   0.001580   6.011359  -4.792571   7.166893   0.292417  -0.000107   0.001241  -5.478277   1.140979   5.179554  33.773777   0.000073  -0.009989  11.532567   2.658385  -5.345862  -6.567562   0.000852  -0.005250
